<svg width="35" height="35" viewBox="0 0 35 35" fill="none" xmlns="http://www.w3.org/2000/svg">
<path d="M17.5 35C27.165 35 35 27.165 35 17.5C35 7.83502 27.165 0 17.5 0C7.83502 0 0 7.83502 0 17.5C0 27.165 7.83502 35 17.5 35Z" fill="#F3BA2F"/>
<path d="M13.2516 15.7544L17.4998 11.5063L21.7501 15.7566L24.2219 13.2847L17.4998 6.5625L10.7798 13.2825L13.2516 15.7544ZM6.56226 17.5L9.03413 15.0281L11.506 17.5L9.03413 19.9719L6.56226 17.5ZM13.2516 19.2456L17.4998 23.4937L21.7501 19.2434L24.2219 21.7142L17.4998 28.4375L10.7798 21.7175L10.7765 21.7142L13.2516 19.2456ZM23.4935 17.5L25.9654 15.0281L28.4373 17.5L25.9654 19.9719L23.4935 17.5ZM20.0066 17.4978H20.0088V17.5L17.4998 20.0091L14.994 17.5044L14.9896 17.5L14.994 17.4967L15.4326 17.057L15.6459 16.8438L17.4998 14.9909L20.0077 17.4989L20.0066 17.4978Z" fill="white"/>
</svg>
