<svg width="35" height="35" viewBox="0 0 35 35" fill="none" xmlns="http://www.w3.org/2000/svg">
<path d="M17.5 35C27.165 35 35 27.165 35 17.5C35 7.83502 27.165 0 17.5 0C7.83502 0 0 7.83502 0 17.5C0 27.165 7.83502 35 17.5 35Z" fill="#F0B90B"/>
<path fill-rule="evenodd" clip-rule="evenodd" d="M10.0518 13.0551L17.5068 5.6001L20.4793 8.57265L13.0243 16.0276L10.0518 13.0551ZM10.0572 21.9636L21.971 10.0498L24.9436 13.0224L13.0298 24.9362L10.0572 21.9636ZM26.4269 14.5141L14.5131 26.4279L17.4854 29.4001L29.3996 17.4864L26.4269 14.5141ZM5.59961 17.5064L8.57216 14.5338L11.5447 17.5064L8.57216 20.4789L5.59961 17.5064Z" fill="white"/>
</svg>
