<svg xmlns="http://www.w3.org/2000/svg" width="30.219" height="30.281" viewBox="0 0 30.219 30.281">
  <defs>
    <style>
      .cls-1 {
        fill: #fff;
        fill-rule: evenodd;
      }
    </style>
  </defs>
  <path id="Фигура_3" data-name="Фигура 3" class="cls-1" d="M38.017,325.021c0.882,0,1.662,0,2.443,0a1.318,1.318,0,0,1,1.418,1.264,1.342,1.342,0,0,1-1.431,1.368q-2.508.015-5.015,0A1.33,1.33,0,0,1,34,326.206q-0.01-2.52,0-5.036a1.313,1.313,0,0,1,1.3-1.437,1.336,1.336,0,0,1,1.326,1.418c0.011,0.467,0,.936,0,1.513,0.169-.144.276-0.228,0.375-0.32a14.407,14.407,0,0,1,11.953-3.813,14.918,14.918,0,0,1,12.954,11.983A14.682,14.682,0,0,1,57.371,344.7a14.477,14.477,0,0,1-11.253,4,15.036,15.036,0,0,1-13.827-12.416,21.337,21.337,0,0,1-.258-2.61,1.3,1.3,0,0,1,1.269-1.418,1.315,1.315,0,0,1,1.344,1.388,12.443,12.443,0,0,0,3.655,8.763,11.925,11.925,0,0,0,6.88,3.512,12.5,12.5,0,1,0-3.987-23.348A11.224,11.224,0,0,0,38.017,325.021Zm9.515,7.1c3.5,0,6.333-.948,6.333-2.118s-2.835-2.119-6.333-2.119-6.333.948-6.333,2.119S44.035,332.123,47.532,332.123Zm4.879,0.585a15.966,15.966,0,0,1-4.878.686,15.94,15.94,0,0,1-4.879-.686,6.306,6.306,0,0,1-1.454-.676v0.9c0,0.567.66,1.1,1.855,1.5a14.68,14.68,0,0,0,4.477.62,14.682,14.682,0,0,0,4.478-.62c1.195-.4,1.854-0.932,1.854-1.5v-0.9A6.281,6.281,0,0,1,52.411,332.708Zm0,2.923a15.965,15.965,0,0,1-4.878.687,15.908,15.908,0,0,1-4.879-.687,6.265,6.265,0,0,1-1.454-.676v0.981c0,1.172,2.835,2.119,6.332,2.119s6.332-.947,6.332-2.119v-0.981A6.281,6.281,0,0,1,52.411,335.631Zm0,3.1a15.966,15.966,0,0,1-4.878.686,15.91,15.91,0,0,1-4.879-.686,6.348,6.348,0,0,1-1.454-.676v0.9c0,0.566.66,1.1,1.855,1.5a14.678,14.678,0,0,0,4.477.621,14.68,14.68,0,0,0,4.478-.621c1.195-.4,1.854-0.932,1.854-1.5v-0.9A6.281,6.281,0,0,1,52.411,338.731Z" transform="translate(-32.031 -318.438)"/>
</svg>
