<svg xmlns="http://www.w3.org/2000/svg" width="30" height="30" viewBox="0 0 30 30">
  <defs>
    <style>
      .cls-1 {
        fill: #fff;
        fill-rule: evenodd;
      }
    </style>
  </defs>
  <path id="Фигура_2" data-name="Фигура 2" class="cls-1" d="M32,249.572V247.2a1.87,1.87,0,0,1,.926-1.3,4.163,4.163,0,0,1,.54-0.309,10.35,10.35,0,0,1,2.767-.805,23.947,23.947,0,0,1,3.3-.319,26.835,26.835,0,0,1,3.653.111c0.532,0.055,1.064.133,1.6,0.2,0.2,0.025.216,0.013,0.228-.21,0.012-.241.025-0.481,0.026-0.72q0.007-4.007.01-8.015a0.639,0.639,0,0,1,.02-0.213,2.15,2.15,0,0,1,.739-1.037,6.337,6.337,0,0,1,1.955-.88,20.992,20.992,0,0,1,4.722-.67L53.213,233h0.581c0.075,0.008.15,0.021,0.226,0.023a24.379,24.379,0,0,1,3.774.347,11.9,11.9,0,0,1,2.659.732,3.174,3.174,0,0,1,1.324,1.014,0.778,0.778,0,0,1,.174.485c0,0.67.015,1.337,0.025,2.006,0,0.262.015,0.523,0.022,0.784v15.9c-0.01.2-.017,0.389-0.03,0.582-0.029.489-.055,0.979-0.1,1.467a0.759,0.759,0,0,1-.27.5,4.454,4.454,0,0,1-1.593.933,16.349,16.349,0,0,1-4.733.864c-1.034.056-2.07,0.041-3.1,0.06a0.675,0.675,0,0,0-.253.039c-0.517.216-1.03,0.445-1.547,0.661a0.144,0.144,0,0,0-.1.156c0,0.184-.025.367-0.029,0.552a1.486,1.486,0,0,1-.541,1.146,3.324,3.324,0,0,1-.311.242,6.226,6.226,0,0,1-1.837.8,19.625,19.625,0,0,1-4.171.634c-0.427.027-.854,0.046-1.28,0.069H41.275a1.063,1.063,0,0,0-.136-0.021c-0.515-.027-1.03-0.04-1.543-0.079a17.051,17.051,0,0,1-3.914-.7,5.634,5.634,0,0,1-1.713-.823,1.551,1.551,0,0,1-.655-1.335c0.007-.9,0-1.795,0-2.694a1.253,1.253,0,0,1,.431-0.973,3.215,3.215,0,0,1,1.084-.635c0.115-.041.228-0.084,0.359-0.133-0.083-.1-0.149-0.172-0.214-0.251a1.381,1.381,0,0,1-.358-0.878c0-.669-0.025-1.338-0.028-2.007a0.181,0.181,0,0,0-.16-0.224,1.2,1.2,0,0,1-.19-0.061,5.793,5.793,0,0,1-1.56-.8,1.374,1.374,0,0,1-.635-1.116C32.036,250.037,32.014,249.805,32,249.572Zm14.352-7.766a0.155,0.155,0,0,0-.016.037c0.01,0.809.021,1.617,0.029,2.427a0.385,0.385,0,0,0,.216.37,8.454,8.454,0,0,0,.988.441,17.655,17.655,0,0,0,4.617.739,26.523,26.523,0,0,0,3.654-.064,16.474,16.474,0,0,0,3.42-.606,4.162,4.162,0,0,0,1.357-.633,0.241,0.241,0,0,0,.094-0.163c0-.77-0.014-1.539-0.024-2.309a1.7,1.7,0,0,0-.028-0.207c-0.221.094-.42,0.2-0.628,0.265a16.735,16.735,0,0,1-3.8.765c-0.823.073-1.652,0.07-2.476,0.076a22.028,22.028,0,0,1-4.527-.3,12.018,12.018,0,0,1-2.8-.816A0.706,0.706,0,0,0,46.35,241.806Zm14.316-4.252-0.216.083c-0.4.14-.788,0.307-1.191,0.414a16.788,16.788,0,0,1-4.114.59,28.409,28.409,0,0,1-5.935-.28,11.909,11.909,0,0,1-2.768-.809,0.865,0.865,0,0,0-.127-0.038c0.018,0.85.038,1.68,0.054,2.511a0.324,0.324,0,0,0,.178.306,8.866,8.866,0,0,0,1.026.467,17.446,17.446,0,0,0,4.585.738,26.729,26.729,0,0,0,3.349-.035,18.183,18.183,0,0,0,3.282-.5,5.165,5.165,0,0,0,1.817-.758,0.274,0.274,0,0,0,.1-0.19c0-.765-0.014-1.53-0.023-2.293C60.683,237.7,60.673,237.64,60.665,237.554ZM48.984,249.847c0.05,0.01.084,0.02,0.119,0.023a40.789,40.789,0,0,0,4.461.241,19.364,19.364,0,0,0,5.313-.574,5.837,5.837,0,0,0,1.593-.614,0.423,0.423,0,0,0,.219-0.421c-0.012-.725,0-1.45,0-2.175a1.211,1.211,0,0,0-.034-0.2,2.288,2.288,0,0,0-.221.076,10.658,10.658,0,0,1-2.523.722,21.467,21.467,0,0,1-3.227.324A26.892,26.892,0,0,1,49.675,247c-0.226-.036-0.45-0.069-0.713-0.108C48.93,247.891,48.958,248.867,48.984,249.847Zm-8.277-3.974a23.013,23.013,0,0,0-3.906.252,11.365,11.365,0,0,0-2.526.636,7.009,7.009,0,0,0-.842.432c-0.158.092-.153,0.168,0,0.275a2.183,2.183,0,0,0,.351.2,10.109,10.109,0,0,0,2.314.669,22.5,22.5,0,0,0,3.24.347,23.588,23.588,0,0,0,5.879-.418,8.216,8.216,0,0,0,1.957-.638,1.779,1.779,0,0,0,.385-0.266c0.123-.109.118-0.166-0.017-0.25a3.11,3.11,0,0,0-.519-0.278A14.681,14.681,0,0,0,43.183,246C42.361,245.915,41.532,245.912,40.707,245.873Zm12.778-8.584c0-.012,0-0.024,0-0.037h0.321a18.336,18.336,0,0,0,4.993-.54,6.4,6.4,0,0,0,1.669-.635c0.291-.176.3-0.322,0-0.472a6.512,6.512,0,0,0-1.057-.425,18.187,18.187,0,0,0-4.258-.685,25.355,25.355,0,0,0-6.081.348,8.887,8.887,0,0,0-2.173.666,2.04,2.04,0,0,0-.406.259c-0.138.111-.131,0.2,0.012,0.3a2,2,0,0,0,.341.187,13,13,0,0,0,3.844.89C51.618,237.233,52.552,237.243,53.485,237.289Zm-1.892,14.252c0,0.351.008,0.707,0,1.063a0.257,0.257,0,0,0,.158.276,1.9,1.9,0,0,1,1.151,1.552,0.071,0.071,0,0,0,.027.011l0.642-.015a25.422,25.422,0,0,0,4.643-.436,8.731,8.731,0,0,0,2.115-.694,0.563,0.563,0,0,0,.365-0.539c0-.741-0.006-1.482-0.012-2.224a0.568,0.568,0,0,0-.034-0.123c-0.1.035-.189,0.07-0.28,0.1-0.427.144-.849,0.314-1.282,0.428a21.223,21.223,0,0,1-5.587.6C52.87,251.539,52.244,251.541,51.593,251.541ZM33.327,248.96c0,0.409,0,.8,0,1.2a0.186,0.186,0,0,0,.09.131,8.507,8.507,0,0,0,.968.451,15.527,15.527,0,0,0,4.3.766,26.605,26.605,0,0,0,5.132-.158,14.49,14.49,0,0,0,2.719-.605,2.428,2.428,0,0,0,.93-0.488,0.55,0.55,0,0,0,.184-0.31c0.025-.319.009-0.642,0.009-0.974-0.345.124-.681,0.255-1.021,0.364a18.641,18.641,0,0,1-4.766.769,25.731,25.731,0,0,1-5.173-.233,12.955,12.955,0,0,1-2.685-.633C33.786,249.149,33.555,249.051,33.327,248.96Zm2.618,4.291c0,0.219,0,.429,0,0.638,0.021,0.675-.069.711,0.664,1a12.676,12.676,0,0,0,3.328.768c0.825,0.09,1.659.115,2.489,0.147a20.885,20.885,0,0,0,5.792-.509,6.4,6.4,0,0,0,1.717-.635,0.428,0.428,0,0,0,.278-0.329c0.016-.357,0-0.714,0-1.074-0.209.086-.418,0.189-0.635,0.262a16.453,16.453,0,0,1-4.3.809,28.659,28.659,0,0,1-6.153-.2,11.837,11.837,0,0,1-3.1-.851A0.854,0.854,0,0,0,35.945,253.251Zm-1.353,5.584c0,0.386.006,0.737,0,1.087a0.422,0.422,0,0,0,.247.437,10.645,10.645,0,0,0,.994.423,17.508,17.508,0,0,0,4.692.742,25.582,25.582,0,0,0,4.718-.2,11.779,11.779,0,0,0,2.785-.67,4.389,4.389,0,0,0,.727-0.385,0.568,0.568,0,0,0,.2-0.3c0.051-.183,0-0.225-0.18-0.2-0.5.075-1.008,0.181-1.516,0.211q-1.435.087-2.874,0.1a35.682,35.682,0,0,1-6.2-.327,17.949,17.949,0,0,1-2.912-.678C35.058,259,34.842,258.923,34.592,258.835ZM51.565,256.1l-0.246.092c-0.309.114-.614,0.243-0.927,0.339a19.171,19.171,0,0,1-4.807.7A39.209,39.209,0,0,1,41.3,257.2a21.3,21.3,0,0,1-3.1-.391c-0.324-.068-0.647-0.14-0.986-0.214,0,0.181.006,0.347,0,.513a0.378,0.378,0,0,0,.223.4,10.148,10.148,0,0,0,1.024.428,17.426,17.426,0,0,0,4.8.736c0.942,0.025,1.888.01,2.827-.032a15.736,15.736,0,0,0,3.629-.54,15.141,15.141,0,0,0,1.5-.569,0.5,0.5,0,0,0,.327-0.35A3.455,3.455,0,0,0,51.565,256.1Zm1.321,1.2c0.063,0,.118,0,0.172,0,0.921-.044,1.845-0.077,2.766-0.138a14.844,14.844,0,0,0,3.421-.6,9.54,9.54,0,0,0,1.165-.488,0.475,0.475,0,0,0,.291-0.437c0.006-.251.013-0.5,0-0.753-0.006-.17-0.065-0.205-0.21-0.146-0.173.07-.338,0.159-0.511,0.221a15.885,15.885,0,0,1-3.615.737,26.814,26.814,0,0,1-3.316.133H52.886v1.473Zm-10.579-4.346v0.047a2.252,2.252,0,0,0,.232.015c0.962-.042,1.926-0.076,2.887-0.134a14.364,14.364,0,0,0,3.284-.576,11.055,11.055,0,0,0,1.271-.516,0.884,0.884,0,0,0,.224-0.248,1.152,1.152,0,0,0-.284-0.131c-0.379-.056-0.762-0.08-1.139-0.144a0.731,0.731,0,0,0-.59.158,4.861,4.861,0,0,1-1.352.688,16.727,16.727,0,0,1-3.661.735C42.888,252.885,42.6,252.923,42.307,252.959Zm-6.34,4.915c-0.021-.319-0.033-0.589-0.061-0.857a0.173,0.173,0,0,0-.139-0.1,2.672,2.672,0,0,0-1.072.477C35.1,257.551,35.513,257.705,35.967,257.874Z" transform="translate(-32 -233)"/>
</svg>
