<svg xmlns="http://www.w3.org/2000/svg" width="30" height="30" viewBox="0 0 30 30">
  <defs>
    <style>
      .cls-1 {
        fill: #fff;
        fill-rule: evenodd;
      }
    </style>
  </defs>
  <path id="Фигура_4" data-name="Фигура 4" class="cls-1" d="M58.235,409.348v-2.32H35.563v2.225A5.651,5.651,0,0,0,32,414.647v11.429c0,4.594,4.3,6.923,12.772,6.923h4.455C57.7,433,62,430.67,62,426.076V414.647C62,412.277,60.732,410.5,58.235,409.348Zm1.982,16.728c0,3.772-3.594,5.6-10.99,5.6H44.772c-7.4,0-10.99-1.833-10.99-5.6V414.648a4.48,4.48,0,0,1,3.107-4.446l0.458-.188v-1.667H56.455v1.77l0.463,0.188c2.221,0.9,3.3,2.319,3.3,4.342v11.429Zm-25.21-20.934v-1.264A1.07,1.07,0,0,1,36.195,403H57.8a1.07,1.07,0,0,1,1.188.879v1.264a1.07,1.07,0,0,1-1.188.88H36.195A1.071,1.071,0,0,1,35.006,405.142ZM47,415.49c4.515,0,8.174-.9,8.174-2.016s-3.66-2.016-8.174-2.016-8.173.9-8.173,2.016S42.485,415.49,47,415.49Zm6.3,0.557a27.454,27.454,0,0,1-6.3.653,27.451,27.451,0,0,1-6.3-.653,9.683,9.683,0,0,1-1.878-.643v0.854c0,0.537.85,1.044,2.393,1.424a25.226,25.226,0,0,0,5.781.591,25.233,25.233,0,0,0,5.782-.591c1.543-.38,2.393-0.887,2.393-1.424V415.4A9.844,9.844,0,0,1,53.295,416.047Zm0,2.782a27.51,27.51,0,0,1-6.3.653,27.451,27.451,0,0,1-6.3-.653,9.659,9.659,0,0,1-1.878-.643v0.933c0,1.113,3.66,2.017,8.173,2.017s8.174-.9,8.174-2.017v-0.933A9.706,9.706,0,0,1,53.295,418.829Zm0,2.95a27.519,27.519,0,0,1-6.3.651,27.46,27.46,0,0,1-6.3-.651,9.75,9.75,0,0,1-1.878-.643v0.852c0,0.538.85,1.045,2.393,1.425A25.282,25.282,0,0,0,47,424a25.233,25.233,0,0,0,5.782-.591c1.543-.38,2.393-0.887,2.393-1.425v-0.852A9.844,9.844,0,0,1,53.295,421.779Zm0,2.781a27.454,27.454,0,0,1-6.3.653,27.4,27.4,0,0,1-6.3-.653,9.659,9.659,0,0,1-1.878-.643v0.934c0,1.113,3.66,2.016,8.173,2.016s8.174-.9,8.174-2.016v-0.934A9.706,9.706,0,0,1,53.295,424.56Zm0,2.95a27.51,27.51,0,0,1-6.3.653,27.451,27.451,0,0,1-6.3-.653,9.592,9.592,0,0,1-1.878-.643V427.8c0,1.113,3.66,2.016,8.173,2.016s8.174-.9,8.174-2.016v-0.933A9.639,9.639,0,0,1,53.295,427.51Z" transform="translate(-32 -403)"/>
</svg>
