<svg xmlns="http://www.w3.org/2000/svg" width="29.969" height="30" viewBox="0 0 29.969 30">
  <defs>
    <style>
      .cls-1 {
        fill: #fff;
        fill-rule: evenodd;
      }
    </style>
  </defs>
  <path id="Фигура_5" data-name="Фигура 5" class="cls-1" d="M32.99,522A0.994,0.994,0,0,1,32,521.005V492.993a0.993,0.993,0,1,1,1.986,0v28.012A0.994,0.994,0,0,1,32.99,522ZM32,521.005v-0.057a1,1,0,0,1,.993-0.994H60.977a1,1,0,0,1,.993.994v0.057a0.994,0.994,0,0,1-.993.994H32.99A0.994,0.994,0,0,1,32,521.005Zm29.884-20.179a0.52,0.52,0,0,0-.447-0.232l-3.521.1a0.523,0.523,0,0,0-.214.994l0.821,0.4-9.723,6.94-6.625-6.013a0.868,0.868,0,0,0-1.162,0l-5.6,5.008a0.868,0.868,0,0,0,1.156,1.3l5.018-4.487,6.565,5.957a0.869,0.869,0,0,0,1.087.064l10.247-7.313,0.048,0.77a0.521,0.521,0,0,0,.431.481,0.4,0.4,0,0,0,.091.009,0.523,0.523,0,0,0,.479-0.311l1.393-3.151A0.513,0.513,0,0,0,61.881,500.826Z" transform="translate(-32 -492)"/>
</svg>
