<svg xmlns="http://www.w3.org/2000/svg" width="31" height="31" viewBox="0 0 31 31">
  <defs>
    <style>
      .cls-1 {
        fill: #fff;
        fill-rule: evenodd;
      }
    </style>
  </defs>
  <path id="Фигура_1" data-name="Фигура 1" class="cls-1" d="M62.966,156.267l-5.173,20.976a0.958,0.958,0,0,1-.907.756,0.846,0.846,0,0,1-.242-0.035L43.987,174.28a1.032,1.032,0,0,1-.663-1.248l0.137-.554a0.6,0.6,0,0,1,.737-0.462,0.662,0.662,0,0,1,.426.8l-0.068.275L56.7,176.626l5.037-20.419-5.151-1.5a0.663,0.663,0,0,1-.426-0.8,0.6,0.6,0,0,1,.738-0.463l5.407,1.575A1.031,1.031,0,0,1,62.966,156.267ZM43.1,149.728a0.629,0.629,0,0,0-.6.654V151a0.6,0.6,0,1,0,1.2,0v-0.622A0.629,0.629,0,0,0,43.1,149.728Zm7.674,8.771a0.705,0.705,0,0,1,0,.756l-2.79,4.285a0.574,0.574,0,0,1-.981,0l-2.79-4.285a0.705,0.705,0,0,1,0-.756l2.79-4.286a0.574,0.574,0,0,1,.981,0Zm-1.229.377L47.5,155.723l-2.053,3.153L47.5,162.03Zm5.383,14.444-0.148.6a0.661,0.661,0,0,0,.426.8,0.561,0.561,0,0,0,.156.022,0.611,0.611,0,0,0,.58-0.484l0.149-.6a0.661,0.661,0,0,0-.426-0.8A0.6,0.6,0,0,0,54.931,173.32ZM39.509,161.342a2.267,2.267,0,0,1,.5-0.086V148.018A0.982,0.982,0,0,1,40.944,147h13.1a0.983,0.983,0,0,1,.939,1.019v13.238a2.187,2.187,0,0,1,1.963,2.846,5.178,5.178,0,0,1-1.963,2.644v2.988a0.985,0.985,0,0,1-.939,1.021h-13.1a0.984,0.984,0,0,1-.938-1.021v-2.988a5.18,5.18,0,0,1-1.964-2.644,2.408,2.408,0,0,1,.208-1.709A2.1,2.1,0,0,1,39.509,161.342Zm15.477,3.717a2.892,2.892,0,0,0,.8-1.3,0.957,0.957,0,0,0-.615-1.157,1.257,1.257,0,0,0-.186-0.039v2.492ZM41.21,169.446H53.781v-21.14H41.21v21.14ZM39.2,163.763a2.9,2.9,0,0,0,.8,1.3v-2.492a1.294,1.294,0,0,0-.187.039,0.883,0.883,0,0,0-.528.441A1.016,1.016,0,0,0,39.2,163.763Zm4.4,11.318-5.307,1.545-5.036-20.419,5.151-1.5a0.663,0.663,0,0,0,.425-0.8,0.6,0.6,0,0,0-.737-0.463l-5.408,1.575a0.944,0.944,0,0,0-.568.474,1.092,1.092,0,0,0-.094.774L37.2,177.243a1.011,1.011,0,0,0,.438.619A0.877,0.877,0,0,0,38.1,178a0.849,0.849,0,0,0,.243-0.035l5.564-1.62a0.659,0.659,0,0,0,.425-0.8A0.6,0.6,0,0,0,43.6,175.081Zm-8.177-18.034a0.662,0.662,0,0,0-.426.8l0.148,0.6a0.612,0.612,0,0,0,.581.485,0.533,0.533,0,0,0,.156-0.023,0.661,0.661,0,0,0,.426-0.8l-0.148-.6A0.6,0.6,0,0,0,35.424,157.047ZM51.89,166.1a0.629,0.629,0,0,0-.6.654v0.622a0.6,0.6,0,1,0,1.2,0v-0.622A0.629,0.629,0,0,0,51.89,166.1Z" transform="translate(-32 -147)"/>
</svg>
