<svg width="16" height="12" viewBox="0 0 16 12" fill="none" xmlns="http://www.w3.org/2000/svg">
<path fill-rule="evenodd" clip-rule="evenodd" d="M15.0098 7.06291H3.46385L6.78442 10.377C7.15548 10.7482 7.15548 11.3506 6.78442 11.7208C6.41235 12.0931 5.80925 12.0931 5.43718 11.7208L0.860398 7.15397C0.652362 7.12996 0.451328 7.0419 0.2903 6.8818C-0.0967666 6.49556 -0.0967666 5.86817 0.2903 5.48193L0.369313 5.40288C0.382316 5.38787 0.387317 5.36785 0.402319 5.35285C0.417322 5.33884 0.437325 5.33383 0.452328 5.31982L5.49319 0.289681C5.88126 -0.0965604 6.50837 -0.0965604 6.89644 0.289681C7.2835 0.676923 7.2835 1.30331 6.89644 1.69056L3.51785 5.06166H15.0098C15.5569 5.06166 16 5.50594 16 6.05228V6.0733C16 6.61964 15.5569 7.06291 15.0098 7.06291Z" fill="white"/>
</svg>
