<svg width="35" height="35" viewBox="0 0 35 35" fill="none" xmlns="http://www.w3.org/2000/svg">
<g clip-path="url(#clip0)">
<path d="M17.5013 35.0026C27.167 35.0026 35.0026 27.167 35.0026 17.5013C35.0026 7.8356 27.167 0 17.5013 0C7.8356 0 0 7.8356 0 17.5013C0 27.167 7.8356 35.0026 17.5013 35.0026Z" fill="#EBB009"/>
<path d="M22.0501 16.5241L22.1073 16.5553L22.1982 16.5579C22.5465 16.5579 22.8429 16.3317 22.9494 15.9834C23.0586 15.6273 22.9286 15.2608 22.6297 15.0736C18.8373 12.5575 16.5889 7.35363 16.5525 6.11895C16.6175 5.85641 16.7656 5.68486 16.9606 5.64847C17.1503 5.61208 17.3531 5.69785 17.4726 5.86941C17.6572 6.13454 17.613 6.53484 17.3427 6.97932C17.1867 7.26525 17.2309 7.61616 17.4518 7.87609C17.6754 8.13603 18.0159 8.2296 18.3304 8.11523L18.3564 8.10224C19.0244 7.73833 19.1154 6.86235 19.1908 6.15534L19.196 6.09815C19.2194 5.37034 18.8971 4.76989 18.2862 4.40859C17.5662 3.98229 16.5629 3.98229 15.8429 4.40859C15.2346 4.76729 14.9123 5.36774 14.9331 6.08775C14.9253 6.87015 15.6063 8.88723 16.763 10.9147C17.7898 12.7238 19.5469 15.1698 22.0501 16.5241Z" fill="white"/>
<path d="M16.4381 12.7109C16.6175 12.4769 16.6565 12.1962 16.5447 11.9389C16.4277 11.6608 16.147 11.4528 15.8455 11.419C15.5648 11.3878 15.3074 11.5074 15.1385 11.7413C11.9205 15.9678 9.173 18.5672 8.13846 18.354C8.01629 18.328 7.83954 18.2501 7.73037 17.8602C7.74856 17.5742 7.82394 17.4755 7.86553 17.4417C7.9799 17.3507 8.25543 17.4079 8.51797 17.4625C8.95985 17.5534 9.56809 17.6782 9.88001 17.0986L9.89301 17.0674C9.98399 16.7892 9.95799 16.5319 9.81243 16.324C9.57069 15.9756 9.03003 15.7911 8.15406 15.7547C7.42365 15.7313 6.8258 16.0562 6.46449 16.6645C6.0382 17.3845 6.0382 18.3878 6.46449 19.1078C6.8128 19.6953 7.38726 20.0176 8.08388 20.0176C8.10727 20.0176 8.12807 20.0176 8.14886 20.0176C9.34195 20.015 10.9717 18.7257 12.1284 17.6444C13.5113 16.3525 15.0813 14.5538 16.4381 12.7109Z" fill="white"/>
<path d="M13.2227 18.5412C12.9784 18.3749 12.6951 18.3489 12.4455 18.4736C12.1752 18.6062 11.9829 18.8947 11.9647 19.1962C11.9465 19.477 12.079 19.7291 12.3234 19.8877C15.4218 21.9333 18.6995 27.2334 18.307 28.8943C18.2498 29.1387 18.1121 29.2609 17.8703 29.292C17.665 29.292 17.5324 29.2349 17.4622 29.1205C17.3089 28.871 17.4233 28.3329 17.613 27.9794C17.769 27.6909 17.7248 27.3373 17.4986 27.08C17.2725 26.8201 16.9294 26.7291 16.6253 26.8461L16.5551 26.8851C15.7181 27.5375 15.6089 28.741 15.9312 29.5936C16.2432 30.4202 16.932 30.914 17.7716 30.914C17.8158 30.914 17.8625 30.9114 17.9223 30.9088C18.9959 30.7867 19.6587 30.2694 19.8874 29.3726C20.2097 28.1145 19.5703 26.1027 18.1303 23.8542C16.7786 21.7488 14.9461 19.7629 13.2227 18.5412Z" fill="white"/>
<path d="M28.837 17.0362L28.8318 17.005C28.5432 15.8145 27.9974 15.1283 27.2072 14.9619C26.1259 14.7332 24.6157 15.5494 22.7181 17.3819C21.4705 18.588 20.0538 20.2256 18.515 22.2452C18.3253 22.4844 18.2967 22.8093 18.4396 23.0952C18.58 23.3733 18.8477 23.5449 19.1441 23.5449L19.2792 23.5397L19.3546 23.4591C19.981 22.7989 20.6283 22.0841 21.2573 21.3927C23.3992 19.0403 25.8243 16.3733 26.7471 16.5527L26.7809 16.5605L26.8147 16.5579C26.9499 16.5501 27.0486 16.6021 27.1214 16.7191C27.2384 16.9114 27.2384 17.2259 27.1214 17.4183C27.0512 17.5352 26.9499 17.5872 26.8043 17.5794L26.7679 17.582C26.6483 17.595 26.4794 17.5456 26.313 17.4963C25.9309 17.3845 25.3513 17.2155 25.0601 17.8628L25.0368 17.9407C24.9848 18.3618 25.1589 18.7335 25.5124 18.9597C26.1207 19.347 27.189 19.2768 27.9454 18.8011C28.6082 18.3878 28.9228 17.7614 28.837 17.0362Z" fill="white"/>
</g>
<defs>
<clipPath id="clip0">
<rect width="35" height="35" fill="white"/>
</clipPath>
</defs>
</svg>
