<svg width="50" height="58" viewBox="0 0 50 58" fill="none" xmlns="http://www.w3.org/2000/svg">
<path fill-rule="evenodd" clip-rule="evenodd" d="M48.0196 31.8108C46.353 32.8401 43.9977 32.9898 42.6605 32.1553C41.8778 31.6682 41.4962 30.8649 41.6098 29.9521L41.6579 29.7804C42.3014 28.3836 43.5742 28.7491 44.4172 28.9901C44.7794 29.0955 45.1549 29.202 45.4168 29.1738L45.4935 29.1718C45.8138 29.1869 46.0338 29.0744 46.1903 28.8214C46.4481 28.4056 46.4481 27.7238 46.1903 27.3081C46.0338 27.056 45.8138 26.9395 45.515 26.9586L45.4383 26.9616L45.3626 26.9456C43.3348 26.559 37.992 32.325 33.2765 37.4122C31.8922 38.9054 30.4639 40.4499 29.0858 41.8778L28.9159 42.0535L28.6172 42.0626C27.9655 42.0626 27.369 41.687 27.0631 41.0865C26.7459 40.4719 26.8134 39.769 27.2298 39.2529C30.6215 34.8836 33.7399 31.3429 36.487 28.737C40.6654 24.7735 43.9906 23.0142 46.3745 23.5052C48.1107 23.8647 49.3149 25.3489 49.9482 27.9246L49.9697 27.9959C50.158 29.5655 49.4643 30.9211 48.0196 31.8108ZM35.3319 26.9586L35.1334 26.9526L35.0107 26.8873C29.5053 23.9581 25.6348 18.6701 23.3594 14.7547C20.8179 10.3735 19.315 6.0103 19.3344 4.32026C19.2863 2.76076 19.9994 1.46737 21.3397 0.689122C22.9235 -0.229707 25.1355 -0.229707 26.7203 0.689122C28.0596 1.46737 28.7727 2.76377 28.7226 4.33934L28.7093 4.46386C28.5476 5.98921 28.3461 7.89014 26.8738 8.6734L26.8165 8.70152C26.1259 8.95156 25.3708 8.7457 24.8818 8.18637C24.3907 7.62704 24.2955 6.86788 24.6393 6.24829C25.2378 5.28528 25.336 4.42068 24.9288 3.84528C24.6649 3.46971 24.2208 3.28293 23.8014 3.36427C23.3727 3.44461 23.0473 3.81716 22.901 4.38252C22.9839 7.05164 27.9296 18.3045 36.2793 23.7492C36.9362 24.1519 37.2216 24.9422 36.9843 25.7154C36.751 26.4706 36.1023 26.9586 35.3319 26.9586ZM4.38356 30.8458C6.65898 31.3017 12.7118 25.6873 19.7999 16.5492C20.1713 16.0431 20.7443 15.786 21.3581 15.8553C22.017 15.9266 22.634 16.3765 22.8959 16.977C23.1333 17.5333 23.0473 18.1389 22.6575 18.642C19.671 22.6266 16.2159 26.5178 13.167 29.3144C10.6215 31.6562 7.03446 34.4468 4.40607 34.4488C4.36514 34.4529 4.31706 34.4529 4.2659 34.4529C2.73224 34.4529 1.4646 33.7529 0.701349 32.4836C-0.233783 30.9272 -0.233783 28.7551 0.701349 27.1996C1.49427 25.8831 2.81205 25.1812 4.41937 25.2334C6.34386 25.3087 7.53784 25.7084 8.06884 26.4615C8.38805 26.9154 8.45046 27.4708 8.24788 28.0713L8.21924 28.1395C7.5317 29.3928 6.19448 29.1206 5.22149 28.9248C4.63934 28.8053 4.03672 28.6838 3.78299 28.8766C3.68886 28.9499 3.52414 29.1618 3.48321 29.7804C3.72774 30.6239 4.11345 30.7936 4.38356 30.8458ZM13.8679 31.0989C14.4214 30.8338 15.0414 30.887 15.5755 31.2435L15.5806 31.2465C19.3702 33.8895 23.4075 38.1844 26.3837 42.7314C29.5533 47.5906 30.9663 51.9407 30.2532 54.6621C29.7477 56.6042 28.2898 57.7218 25.9254 57.988C25.7913 57.997 25.6931 58 25.5939 58C23.7451 58 22.2278 56.9346 21.5403 55.1471C20.8292 53.3034 21.0717 50.6996 22.9143 49.2917L23.0678 49.2063C23.7389 48.9563 24.4961 49.1531 24.9923 49.7125C25.4895 50.2718 25.5918 51.038 25.2429 51.6596C24.8235 52.4217 24.5789 53.5846 24.9135 54.1259C25.0659 54.3719 25.3616 54.4944 25.8097 54.4944C26.3459 54.4311 26.6477 54.166 26.7745 53.6378C27.6401 50.0438 20.423 38.5811 13.5998 34.1586C13.0617 33.8152 12.7731 33.2679 12.811 32.6614C12.8489 32.0117 13.2755 31.3831 13.8679 31.0989Z" fill="#ECB007"/>
</svg>
