<svg xmlns="http://www.w3.org/2000/svg" width="194.75" height="57.719" viewBox="0 0 194.75 57.719">
  <defs>
    <style>
      .cls-1 {
        fill: #ecb007;
        fill-rule: evenodd;
      }
    </style>
  </defs>
  <path id="Logo" class="cls-1" d="M110.11,48.661h-3.02a0.507,0.507,0,0,0-.454.454V70.959a0.508,0.508,0,0,0,.454.454h3.02a0.51,0.51,0,0,0,.455-0.454V49.116a0.438,0.438,0,0,0-.147-0.308A0.433,0.433,0,0,0,110.11,48.661Zm24.106,0h-3.055a0.412,0.412,0,0,0-.324.147,0.457,0.457,0,0,0-.13.308L130.676,62.7a0.146,0.146,0,0,1-.1.161,0.129,0.129,0,0,1-.2-0.065l-12.96-14.073a1.11,1.11,0,0,0-.847-0.389h-0.584a0.454,0.454,0,0,0-.308.131,0.389,0.389,0,0,0-.147.293v22.2a0.511,0.511,0,0,0,.455.454h2.988a0.412,0.412,0,0,0,.324-0.147,0.452,0.452,0,0,0,.13-0.308l0.031-13.815a0.212,0.212,0,0,1,.131-0.2,0.205,0.205,0,0,1,.2.066l13,14.334a1.242,1.242,0,0,0,.909.389h0.519a0.455,0.455,0,0,0,.308-0.131,0.39,0.39,0,0,0,.146-0.292v-22.2A0.508,0.508,0,0,0,134.216,48.661Zm17.955,2.1a7.692,7.692,0,0,0-2.307-1.527,6.917,6.917,0,0,0-2.777-.57h-7.082a0.414,0.414,0,0,0-.325.147,0.457,0.457,0,0,0-.13.308V70.959a0.457,0.457,0,0,0,.13.308,0.423,0.423,0,0,0,.325.146h2.989a0.427,0.427,0,0,0,.306-0.146,0.434,0.434,0,0,0,.148-0.308V63.222a0.172,0.172,0,0,1,.195-0.2h3.477a6.808,6.808,0,0,0,2.762-.57,7.376,7.376,0,0,0,3.848-3.868,7.015,7.015,0,0,0,.569-2.813,6.833,6.833,0,0,0-.569-2.764A6.974,6.974,0,0,0,152.171,50.758Zm-2.094,6.418a3.789,3.789,0,0,1-.78,1.139,3.577,3.577,0,0,1-1.137.765,3.464,3.464,0,0,1-1.366.277h-3.151a0.172,0.172,0,0,1-.195-0.2V52.594a0.172,0.172,0,0,1,.195-0.2h3.151a3.636,3.636,0,0,1,1.366.262,3.834,3.834,0,0,1,1.137.7,3.335,3.335,0,0,1,.78,1.055,3.031,3.031,0,0,1,.293,1.332A3.453,3.453,0,0,1,150.077,57.176ZM178.272,55.8a12.907,12.907,0,0,0-.829-1.836,4.426,4.426,0,0,0-.908-1.2,0.449,0.449,0,0,0-.584-0.115,3.733,3.733,0,0,0-.389.342,3.3,3.3,0,0,0-.388.358c-0.2.2-.4,0.389-0.617,0.586-0.239.24-.519,0.5-0.845,0.781a1.63,1.63,0,0,0-.162.258,0.482,0.482,0,0,0-.03.308,0.647,0.647,0,0,0,.194.342,3.835,3.835,0,0,1,.521.813,7.91,7.91,0,0,1,.454,1.139,11.263,11.263,0,0,1,.324,1.285,6.839,6.839,0,0,1,.13,1.285,7.345,7.345,0,0,1-.616,2.991,8.163,8.163,0,0,1-1.659,2.456,7.637,7.637,0,0,1-5.459,2.259,7.455,7.455,0,0,1-2.987-.6,7.793,7.793,0,0,1-4.114-4.114,7.485,7.485,0,0,1-.6-2.991,7.6,7.6,0,0,1,.6-3.006,7.758,7.758,0,0,1,1.659-2.471,8.029,8.029,0,0,1,2.455-1.674,7.306,7.306,0,0,1,2.987-.617,7.52,7.52,0,0,1,3.086.651,1.271,1.271,0,0,0,.585.115,0.472,0.472,0,0,0,.424-0.277c0.042-.066.133-0.218,0.276-0.454s0.286-.492.439-0.763,0.285-.526.407-0.765,0.2-.389.242-0.454a0.566,0.566,0,0,0-.261-0.812,11.425,11.425,0,0,0-5.2-1.2,11.274,11.274,0,0,0-4.562.928,11.923,11.923,0,0,0-3.7,2.5,11.7,11.7,0,0,0,3.7,19.065,11.914,11.914,0,0,0,9.125,0,11.819,11.819,0,0,0,3.721-2.487,11.562,11.562,0,0,0,3.409-8.272,11.021,11.021,0,0,0-.227-2.178A14.556,14.556,0,0,0,178.272,55.8Zm20.961,13.862q-0.667-.813-1.625-1.967t-2.063-2.471q-1.1-1.316-2.046-2.471T191.893,60.8c-0.447-.532-0.689-0.828-0.732-0.893a0.975,0.975,0,0,1-.261-0.489,0.805,0.805,0,0,1,.292-0.585l8.187-9.33a0.468,0.468,0,0,0,.081-0.554,0.489,0.489,0,0,0-.47-0.292h-3.283a0.622,0.622,0,0,0-.519.258h-0.03l-7.929,8.978a0.337,0.337,0,0,1-.407.1,0.36,0.36,0,0,1-.21-0.358V49.277a0.569,0.569,0,0,0-.2-0.439,0.664,0.664,0,0,0-.455-0.177h-2.826a0.607,0.607,0,0,0-.618.616V70.794a0.607,0.607,0,0,0,.618.616h2.826a0.655,0.655,0,0,0,.455-0.177,0.569,0.569,0,0,0,.2-0.439V61.3a0.323,0.323,0,0,1,.241-0.358,0.372,0.372,0,0,1,.409.131q1.522,1.919,2.7,3.365t2.03,2.517q0.86,1.074,1.461,1.8c0.4,0.489.733,0.894,0.994,1.22l1.038,1.266a0.54,0.54,0,0,0,.489.162h3.574a0.483,0.483,0,0,0,.488-0.293A0.568,0.568,0,0,0,200,70.564C199.932,70.5,199.677,70.2,199.233,69.658Zm16.624-21H203.124a0.408,0.408,0,0,0-.323.147,0.449,0.449,0,0,0-.131.308V70.959a0.449,0.449,0,0,0,.131.308,0.417,0.417,0,0,0,.323.146h12.733a0.414,0.414,0,0,0,.325-0.146,0.458,0.458,0,0,0,.131-0.308v-2.7a0.517,0.517,0,0,0-.131-0.324,0.4,0.4,0,0,0-.325-0.161h-9.094a0.173,0.173,0,0,1-.2-0.2V61.89a0.173,0.173,0,0,1,.2-0.2h7.5a0.453,0.453,0,0,0,.308-0.131,0.423,0.423,0,0,0,.147-0.323V58.476a0.511,0.511,0,0,0-.455-0.454h-7.5a0.173,0.173,0,0,1-.2-0.2V52.495a0.173,0.173,0,0,1,.2-0.2h9.094a0.393,0.393,0,0,0,.325-0.162,0.529,0.529,0,0,0,.131-0.324v-2.7a0.459,0.459,0,0,0-.131-0.308A0.426,0.426,0,0,0,215.857,48.661Zm20.234,20.966q-0.453-.779-1.366-2.487t-2.565-4.8a0.158,0.158,0,0,1,.1-0.258,8.452,8.452,0,0,0,3.427-2.617A6.2,6.2,0,0,0,237,55.586a6.644,6.644,0,0,0-.554-2.7,6.929,6.929,0,0,0-1.512-2.21,7.07,7.07,0,0,0-2.224-1.478,6.929,6.929,0,0,0-2.727-.535h-8.74a0.413,0.413,0,0,0-.324.146,0.462,0.462,0,0,0-.131.308V70.962a0.458,0.458,0,0,0,.131.308,0.419,0.419,0,0,0,.324.147H224.2a0.485,0.485,0,0,0,.325-0.147,0.412,0.412,0,0,0,.161-0.308V62.575a0.174,0.174,0,0,1,.2-0.2h2.954a0.191,0.191,0,0,1,.164.1q0.81,1.658,1.429,2.895t1.089,2.163c0.314,0.616.579,1.139,0.795,1.559s0.39,0.762.521,1.024l0.553,1.074a0.347,0.347,0,0,0,.388.227h3.478a0.443,0.443,0,0,0,.439-0.227,0.527,0.527,0,0,0-.017-0.489Zm-5.148-10.712a3.265,3.265,0,0,1-1.316.277h-4.709a0.174,0.174,0,0,1-.2-0.2v-6.5a0.174,0.174,0,0,1,.2-0.2h4.709a3.442,3.442,0,0,1,3.166,2.051,3.153,3.153,0,0,1,.278,1.3,3.426,3.426,0,0,1-.278,1.382,3.684,3.684,0,0,1-.746,1.12A3.406,3.406,0,0,1,230.943,58.915ZM76.442,58l0.122,0.066,0.192,0.006a1.75,1.75,0,0,0,.927-3.2c-8.162-5.422-13-16.628-13.076-19.286a1.231,1.231,0,0,1,.881-1.015,1.093,1.093,0,0,1,1.1.479,2.209,2.209,0,0,1-.282,2.394,1.749,1.749,0,0,0,2.128,2.443l0.055-.027c1.44-.782,1.635-2.674,1.8-4.193l0.013-.124a3.91,3.91,0,0,0-1.957-3.635,5.382,5.382,0,0,0-5.26,0,3.9,3.9,0,0,0-1.959,3.617c-0.019,1.683,1.449,6.027,3.935,10.391C67.279,49.819,71.061,55.084,76.442,58Zm-12.074-8.21a1.629,1.629,0,0,0,.233-1.659,1.908,1.908,0,0,0-1.5-1.117,1.624,1.624,0,0,0-1.525.691c-6.926,9.1-12.842,14.692-15.066,14.238a1.212,1.212,0,0,1-.589-1.961,2.186,2.186,0,0,1,1.406.047c0.952,0.2,2.258.467,2.929-.781l0.029-.069a1.748,1.748,0,0,0-.175-1.6c-0.519-.751-1.685-1.149-3.567-1.224a3.894,3.894,0,0,0-3.632,1.957,5.39,5.39,0,0,0,0,5.263,3.9,3.9,0,0,0,3.484,1.96c0.049,0,.1,0,0.137,0,2.569,0,6.074-2.782,8.563-5.112A80.409,80.409,0,0,0,64.368,49.791ZM57.45,62.342l0,0a1.631,1.631,0,0,0-1.671-.143,1.9,1.9,0,0,0-1.032,1.556,1.631,1.631,0,0,0,.771,1.491c6.668,4.4,13.723,15.818,12.877,19.4a1,1,0,0,1-.943.853,0.942,0.942,0,0,1-.878-0.367A3.021,3.021,0,0,1,66.9,82.67a1.75,1.75,0,0,0-2.129-2.443l-0.149.084a5.2,5.2,0,0,0-1.342,5.832,4.151,4.151,0,0,0,3.962,2.841c0.1,0,.193,0,0.323-0.012,2.311-.264,3.736-1.378,4.231-3.311,0.7-2.711-.685-7.043-3.782-11.882A43.425,43.425,0,0,0,57.45,62.342Zm33.593-3.308c-0.619-2.564-1.794-4.042-3.493-4.4-2.33-.489-5.581,1.264-9.664,5.21a94.557,94.557,0,0,0-9.049,10.473,1.682,1.682,0,0,0-.161,1.826,1.7,1.7,0,0,0,1.517.971l0.293-.01,0.166-.174c1.346-1.422,2.743-2.96,4.095-4.447,4.611-5.066,9.833-10.808,11.814-10.422l0.075,0.015,0.075,0a0.667,0.667,0,0,1,.659.349,1.6,1.6,0,0,1,0,1.507,0.686,0.686,0,0,1-.682.349l-0.075,0a2.909,2.909,0,0,1-.977-0.184c-0.823-.239-2.069-0.6-2.7.788l-0.047.171a2.189,2.189,0,0,0,1.026,2.194,5.343,5.343,0,0,0,5.237-.342,3.8,3.8,0,0,0,1.907-3.8Z" transform="translate(-42.25 -31.25)"/>
</svg>
